<svg width="385" height="160" viewBox="0 0 385 160" fill="none" xmlns="http://www.w3.org/2000/svg">
<path d="M90.8461 135.333C63.6533 135.333 41.0112 115.583 36.405 89.6666H29.8288C34.4904 119.167 60.0739 141.806 90.8461 141.806C107.883 141.806 123.311 134.861 134.493 123.667L129.915 119.083C119.926 129.139 106.107 135.333 90.8461 135.333Z" fill="url(#paint0_linear_192_93)"/>
<path d="M100.53 121.222V127.889C110.103 125.944 118.677 121.194 125.337 114.528L120.758 109.944C115.292 115.417 108.327 119.389 100.53 121.222Z" fill="url(#paint1_linear_192_93)"/>
<path d="M90.8461 31.1666C89.764 31.1666 88.6818 31.1944 87.5997 31.2777V37.7777V44.3055C69.3694 45.9444 55.0515 61.3055 55.0515 80C55.0515 96.4166 66.1229 110.278 81.1899 114.528V107.722C69.7579 103.722 61.5445 92.8055 61.5445 80C61.5445 63.8055 74.697 50.6389 90.8739 50.6389C91.9561 50.6389 93.0382 50.6944 94.0926 50.8055V48.8888V44.2777V37.7777C104.665 38.5833 114.182 43.3055 121.174 50.4722L125.753 45.8888C116.874 36.8055 104.526 31.1666 90.8461 31.1666Z" fill="url(#paint2_linear_192_93)"/>
<path d="M81.1622 32.1388C62.0162 36.0277 46.9215 51.1388 43.0368 70.3332H49.6685C53.3312 54.7777 65.5957 42.4721 81.1622 38.8055V32.1388Z" fill="url(#paint3_linear_192_93)"/>
<path d="M111.99 59.6667L116.568 55.0833C112.212 50.5833 106.718 47.25 100.53 45.5V52.3056C104.914 53.8333 108.827 56.3611 111.99 59.6667Z" fill="url(#paint4_linear_192_93)"/>
<path d="M31.1052 83.2222H35.6559H39.929H42.1766C43.8415 108.667 65.0407 128.833 90.8461 128.833C91.9283 128.833 93.0105 128.806 94.0649 128.722V124.722V122.222V115.694C102.639 114.917 110.381 111.111 116.152 105.333L111.574 100.75C106.274 106.056 98.9485 109.361 90.8461 109.361C89.764 109.361 88.6818 109.306 87.6274 109.194V110.472V115.694V122.222C65.8177 120.556 48.5586 102.25 48.5586 80C48.5586 78.9166 48.5863 77.8333 48.6696 76.7777H45.3398H42.1766H35.6559C37.3207 47.75 61.4335 24.6666 90.8461 24.6666C106.302 24.6666 120.286 31.0555 130.331 41.3055L134.91 36.7222C123.699 25.2777 108.105 18.1666 90.8461 18.1666C56.7996 18.1666 29.0797 45.9166 29.0797 80C29.0797 81.0833 29.1074 82.1666 29.1629 83.2222H31.1052Z" fill="url(#paint5_linear_192_93)"/>
<path d="M98.0606 84.2777V84.4444C98.0606 89.3611 94.7863 92 89.5975 92C84.4087 92 81.1067 89.25 81.1067 84.1389V77.4444C81.1067 72.3333 84.4087 69.6111 89.653 69.6111C94.7863 69.6111 98.0606 72.25 98.0606 77.1666V77.2778H94.3701V77.1666C94.3701 74.3611 92.5665 72.8055 89.6808 72.8055C86.6562 72.8055 84.8249 74.4444 84.8249 77.4444V84.1389C84.8249 87.1666 86.6562 88.7778 89.6253 88.7778C92.5943 88.7778 94.3701 87.25 94.3701 84.4444V84.2777H98.0606Z" fill="white"/>
<path d="M107.772 69.8888H116.735C121.091 69.8888 123.949 71.9721 123.949 76.8888C123.949 80.4443 122.479 82.5277 120.037 83.4166L124.171 91.6666H119.898L116.18 83.9166H111.49V91.6666H107.8V69.8888H107.772ZM111.463 80.7221H116.596C118.733 80.7221 120.12 79.6666 120.12 76.8888C120.12 74.111 118.76 73.0832 116.596 73.0832H111.463V80.7221Z" fill="white"/>
<path d="M143.04 91.6944H139.349V83.6944L131.386 69.9166H135.798L141.236 79.9722L146.813 69.9166H150.976L143.04 83.6944V91.6944Z" fill="white"/>
<path d="M159.05 69.8888H167.624C171.981 69.8888 174.811 71.9721 174.811 76.8888C174.811 81.8055 172.008 83.9166 167.624 83.9166H162.741V91.6666H159.05V69.8888ZM162.768 80.7221H167.513C169.65 80.7221 171.037 79.6666 171.037 76.8888C171.037 74.111 169.65 73.0832 167.513 73.0832H162.768V80.7221Z" fill="white"/>
<path d="M182.081 69.8888H199.09V73.0832H192.431V91.6666H188.74V73.0832H182.081V69.8888Z" fill="white"/>
<path d="M224.341 84.111C224.341 89.2499 221.011 91.9721 215.767 91.9721C210.578 91.9721 207.248 89.2221 207.248 84.111V77.4166C207.248 72.3055 210.578 69.5833 215.822 69.5833C221.011 69.5833 224.341 72.3333 224.341 77.4166V84.111ZM220.65 77.4444C220.65 74.4444 218.791 72.8055 215.822 72.8055C212.798 72.8055 210.938 74.4444 210.938 77.4444V84.1388C210.938 87.1666 212.798 88.7777 215.767 88.7777C218.791 88.7777 220.65 87.1666 220.65 84.1388V77.4444Z" fill="white"/>
<path d="M237.992 76.6944V91.6944H234.302V69.9166H237.743L247.371 84.9166V69.9166H251.062V91.6944H247.621L237.992 76.6944Z" fill="white"/>
<path d="M278.143 84.111C278.143 89.2499 274.814 91.9721 269.569 91.9721C264.381 91.9721 261.051 89.2221 261.051 84.111V77.4166C261.051 72.3055 264.381 69.5833 269.625 69.5833C274.814 69.5833 278.143 72.3333 278.143 77.4166V84.111ZM274.453 77.4444C274.453 74.4444 272.594 72.8055 269.625 72.8055C266.6 72.8055 264.741 74.4444 264.741 77.4444V84.1388C264.741 87.1666 266.6 88.7777 269.569 88.7777C272.594 88.7777 274.453 87.1666 274.453 84.1388V77.4444Z" fill="white"/>
<path d="M303.671 77.1944L297.733 88.3889L291.795 77.1944V91.6944H288.105V69.9166H291.684L297.733 81.3611L303.782 69.9166H307.362V91.6944H303.671V77.1944Z" fill="white"/>
<path d="M317.628 69.8888H321.319V91.6666H317.628V69.8888Z" fill="white"/>
<path d="M348.207 84.2777V84.4444C348.207 89.3611 344.932 92 339.743 92C334.555 92 331.253 89.25 331.253 84.1389V77.4444C331.253 72.3333 334.555 69.6111 339.799 69.6111C344.932 69.6111 348.207 72.25 348.207 77.1666V77.2778H344.516V77.1666C344.516 74.3611 342.712 72.8055 339.827 72.8055C336.802 72.8055 334.971 74.4444 334.971 77.4444V84.1389C334.971 87.1666 336.802 88.7778 339.771 88.7778C342.74 88.7778 344.516 87.25 344.516 84.4444V84.2777H348.207Z" fill="white"/>
<defs>
<linearGradient id="paint0_linear_192_93" x1="121.78" y1="152.391" x2="25.1206" y2="62.4956" gradientUnits="userSpaceOnUse">
<stop offset="0.153" stop-color="#FBC80A"/>
<stop offset="0.4709" stop-color="#EB148D"/>
<stop offset="0.9051" stop-color="#6BCBDA"/>
</linearGradient>
<linearGradient id="paint1_linear_192_93" x1="133.295" y1="140.01" x2="36.6354" y2="50.1144" gradientUnits="userSpaceOnUse">
<stop offset="0.153" stop-color="#FBC80A"/>
<stop offset="0.4709" stop-color="#EB148D"/>
<stop offset="0.9051" stop-color="#6BCBDA"/>
</linearGradient>
<linearGradient id="paint2_linear_192_93" x1="147.902" y1="124.304" x2="51.2426" y2="34.4083" gradientUnits="userSpaceOnUse">
<stop offset="0.153" stop-color="#FBC80A"/>
<stop offset="0.4709" stop-color="#EB148D"/>
<stop offset="0.9051" stop-color="#6BCBDA"/>
</linearGradient>
<linearGradient id="paint3_linear_192_93" x1="144.475" y1="127.989" x2="47.8156" y2="38.0932" gradientUnits="userSpaceOnUse">
<stop offset="0.153" stop-color="#FBC80A"/>
<stop offset="0.4709" stop-color="#EB148D"/>
<stop offset="0.9051" stop-color="#6BCBDA"/>
</linearGradient>
<linearGradient id="paint4_linear_192_93" x1="164.835" y1="106.097" x2="68.1758" y2="16.2011" gradientUnits="userSpaceOnUse">
<stop offset="0.153" stop-color="#FBC80A"/>
<stop offset="0.4709" stop-color="#EB148D"/>
<stop offset="0.9051" stop-color="#6BCBDA"/>
</linearGradient>
<linearGradient id="paint5_linear_192_93" x1="147.908" y1="124.297" x2="51.2487" y2="34.4017" gradientUnits="userSpaceOnUse">
<stop offset="0.153" stop-color="#FBC80A"/>
<stop offset="0.4709" stop-color="#EB148D"/>
<stop offset="0.9051" stop-color="#6BCBDA"/>
</linearGradient>
</defs>
</svg>
