<svg width="32" height="32" viewBox="0 0 32 32" fill="none" xmlns="http://www.w3.org/2000/svg">
<path d="M15.9589 30C12.8142 29.0659 10.2013 27.1606 8.12014 24.2842C6.04004 21.4067 4.99998 18.1654 4.99998 14.5605V6.09393L15.9589 2L26.9178 6.09393V14.5605C26.9178 18.1654 25.8777 21.4061 23.7976 24.2826C21.7165 27.1601 19.1036 29.0659 15.9589 30ZM15.9589 28.3374C18.4899 27.5546 20.6034 26.0089 22.2994 23.7002C23.9954 21.3915 24.9869 18.8146 25.274 15.9695H15.9589V3.67045L6.56554 7.16321V15.2352C6.56554 15.4377 6.59164 15.6825 6.64382 15.9695H15.9589V28.3374Z" fill="#E16B31"/>
</svg>
