<svg width="32" height="32" viewBox="0 0 32 32" fill="none" xmlns="http://www.w3.org/2000/svg">
<path d="M16.3077 31C18 31 19.3846 29.6154 19.3846 27.9231H13.2308C13.2308 29.6154 14.6154 31 16.3077 31ZM25.5385 21.7692V14.0769C25.5385 9.35385 23.0308 5.4 18.6154 4.35385V3.30769C18.6154 2.03077 17.5846 1 16.3077 1C15.0308 1 14 2.03077 14 3.30769V4.35385C9.6 5.4 7.07692 9.33846 7.07692 14.0769V21.7692L4 24.8462V26.3846H28.6154V24.8462L25.5385 21.7692ZM22.4615 23.3077H10.1538V14.0769C10.1538 10.2615 12.4769 7.15385 16.3077 7.15385C20.1385 7.15385 22.4615 10.2615 22.4615 14.0769V23.3077Z" fill="#E16B31"/>
</svg>
